<svg width="100" height="104" viewBox="0 0 180 184" fill="none" xmlns="http://www.w3.org/2000/svg">
<path fill-rule="evenodd" clip-rule="evenodd" d="M68.8979 127.565H25C11.1929 127.565 0 116.372 0 102.565L0 25C0 11.1929 11.1929 0 25 0L115 0C128.807 0 140 11.1929 140 25L140 102.565C140 103.387 139.96 104.199 139.883 105H140V136.5V138H139.937C139.176 146.963 131.66 154 122.5 154H101.5C93.5101 154 86.7708 148.645 84.6748 141.329C84.5664 140.525 84.398 139.74 84.1743 138.979C84.1284 138.656 84.0913 138.329 84.0634 138H83.8513C81.9636 132.849 77.4883 128.946 72 127.865V127.565H68.9202C68.9165 127.565 68.9128 127.565 68.9091 127.565C68.9054 127.565 68.9017 127.565 68.8979 127.565Z" fill="#585858" fill-opacity="0.9"/>
</svg>
