<svg width="8" height="8" viewBox="0 0 8 8" fill="none" xmlns="http://www.w3.org/2000/svg">
<path fill-rule="evenodd" clip-rule="evenodd" d="M7.60703 1.71426C7.93247 1.38882 7.93247 0.861181 7.60703 0.535744C7.2816 0.210308 6.75396 0.210308 6.42852 0.535745L4.07137 2.89289L1.71414 0.535662C1.3887 0.210225 0.861064 0.210225 0.535627 0.535662C0.210191 0.861098 0.210191 1.38874 0.535628 1.71417L2.89286 4.07141L0.535966 6.4283C0.210529 6.75374 0.210529 7.28138 0.535966 7.60681C0.861403 7.93225 1.38904 7.93225 1.71448 7.60681L4.07137 5.24992L6.42818 7.60673C6.75362 7.93217 7.28126 7.93217 7.6067 7.60673C7.93213 7.28129 7.93213 6.75365 7.60669 6.42822L5.24988 4.07141L7.60703 1.71426Z" fill="#8E8E8E"/>
</svg>
