<svg width="72" height="81" viewBox="0 0 82 91" fill="none" xmlns="http://www.w3.org/2000/svg">
<path d="M41 56.75V65.75M18.5 36.6296C20.6214 36.5 23.2367 36.5 26.6 36.5H55.4C58.7633 36.5 61.3787 36.5 63.5 36.6296M18.5 36.6296C15.8526 36.7912 13.9743 37.1547 12.3711 37.9715C9.83093 39.2657 7.7657 41.3307 6.47141 43.871C5 46.7591 5 50.5391 5 58.1V64.4C5 71.9609 5 75.7409 6.47141 78.629C7.7657 81.1692 9.83093 83.2343 12.3711 84.5285C15.2589 86 19.0393 86 26.6 86H55.4C62.9609 86 66.7409 86 69.629 84.5285C72.1692 83.2343 74.2343 81.1692 75.5285 78.629C77 75.7409 77 71.9609 77 64.4V58.1C77 50.5391 77 46.7591 75.5285 43.871C74.2343 41.3307 72.1692 39.2657 69.629 37.9715C68.0256 37.1547 66.1473 36.7912 63.5 36.6296M18.5 36.6296V27.5C18.5 15.0736 28.5736 5 41 5C53.4263 5 63.5 15.0736 63.5 27.5V36.6296" stroke="url(#paint0_linear_3235_4018)" stroke-width="9" stroke-linecap="round" stroke-linejoin="round"/>
<defs>
<linearGradient id="paint0_linear_3235_4018" x1="77" y1="23.5" x2="-15.5" y2="91.5001" gradientUnits="userSpaceOnUse">
<stop stop-color="#191281"/>
<stop offset="0.535" stop-color="#0092A0"/>
<stop offset="1" stop-color="#03AD1E"/>
</linearGradient>
</defs>
</svg>
