<svg width="17" height="19" viewBox="0 0 17 19" fill="none" xmlns="http://www.w3.org/2000/svg">
<path d="M12.7758 1H4.22418C3.36961 1.00173 2.55055 1.33914 1.94626 1.93838C1.34201 2.53762 1.00175 3.34986 1.00001 4.19731V16.0712C0.999087 16.429 1.09882 16.78 1.28801 17.0848C1.47721 17.3895 1.74836 17.6358 2.07101 17.7962C2.39362 17.9565 2.75494 18.0244 3.11435 17.9922C3.47376 17.9601 3.81697 17.8292 4.1055 17.6142L8.12748 14.6262C8.23571 14.5466 8.36688 14.5036 8.50165 14.5036C8.63642 14.5036 8.7676 14.5466 8.87583 14.6262L12.8945 17.611C13.1827 17.826 13.5257 17.9571 13.8849 17.9895C14.2441 18.0219 14.6053 17.9543 14.9279 17.7943C15.2505 17.6344 15.5217 17.3884 15.7111 17.084C15.9005 16.7796 16.0006 16.4288 16 16.0712V4.19731C15.9983 3.34986 15.658 2.53762 15.0537 1.93838C14.4495 1.33914 13.6304 1.00173 12.7758 1Z" stroke="white" stroke-width="1.3"/>
</svg>
