<svg width="45" height="40" viewBox="0 0 55 61" fill="none" xmlns="http://www.w3.org/2000/svg">
<path d="M27.5 38.1389V44.25M12.1875 24.4769C13.6312 24.3889 15.4111 24.3889 17.7 24.3889H37.3C39.5889 24.3889 41.3688 24.3889 42.8125 24.4769M12.1875 24.4769C10.3858 24.5866 9.10751 24.8335 8.01647 25.3881C6.28772 26.2668 4.88221 27.669 4.00138 29.3939C3 31.3549 3 33.9216 3 39.0556V43.3333C3 48.4673 3 51.0339 4.00138 52.995C4.88221 54.7199 6.28772 56.1221 8.01647 57.0008C9.98177 58 12.5545 58 17.7 58H37.3C42.4456 58 45.0181 58 46.9836 57.0008C48.7124 56.1221 50.1178 54.7199 50.9986 52.995C52 51.0339 52 48.4673 52 43.3333V39.0556C52 33.9216 52 31.3549 50.9986 29.3939C50.1178 27.669 48.7124 26.2668 46.9836 25.3881C45.8925 24.8335 44.6142 24.5866 42.8125 24.4769M12.1875 24.4769V18.2778C12.1875 9.84011 19.0432 3 27.5 3C35.9568 3 42.8125 9.84011 42.8125 18.2778V24.4769" stroke="white" stroke-width="6" stroke-linecap="round" stroke-linejoin="round"/>
</svg>
