<svg width="20" height="18" viewBox="0 0 20 18" fill="none" xmlns="http://www.w3.org/2000/svg">
<path d="M8.05602 5.63248L8.67474 5.55592L8.71254 4.93363L8.93683 1.2406C8.95741 1.05152 9.06566 0.887539 9.19046 0.806142C9.24898 0.767969 9.30424 0.751926 9.3542 0.750169C9.40087 0.748527 9.47052 0.758179 9.56489 0.812959C11.2822 1.85104 12.9097 3.03666 14.4916 4.31342C16.443 5.90315 18.0054 7.39855 19.1034 8.58412C19.3016 8.79823 19.3036 9.18732 19.0792 9.42973C17.9981 10.5964 16.8297 11.6866 15.6163 12.7298C13.6693 14.3737 11.6852 15.9402 9.53873 17.1899C9.39474 17.2736 9.28085 17.2594 9.18947 17.2109C9.08512 17.1556 8.98695 17.0392 8.95294 16.8789L8.94331 16.8106L8.71552 13.119L8.67114 12.3998L7.95067 12.4154C5.95107 12.4588 4.00922 13.1685 2.45449 14.4918L2.45447 14.4918L2.44904 14.4965L2.18541 14.7252C2.14678 14.758 2.10871 14.7898 2.07121 14.8208L1.83064 15.0134C1.79712 15.0393 1.76419 15.0644 1.73185 15.0885L1.51341 15.2445C1.45436 15.2844 1.39833 15.3205 1.34525 15.3527L1.16208 15.4547C1.0504 15.5107 0.974253 15.5356 0.92812 15.5466C0.903283 15.498 0.866635 15.4066 0.833176 15.2487C0.7822 15.0081 0.75 14.668 0.75 14.2043C0.75 9.95701 3.78314 6.22877 7.8003 5.66413L8.05602 5.63248Z" stroke="black" stroke-width="1.5"/>
</svg>
