<svg width="19" height="19" viewBox="0 0 19 19" fill="none" xmlns="http://www.w3.org/2000/svg">
<g clip-path="url(#clip0_3588_3271)">
<path d="M2.00001 4.6435V16.0712C1.99908 16.429 2.09882 16.78 2.28801 17.0848C2.47721 17.3895 2.74836 17.6358 3.07101 17.7962C3.39362 17.9565 3.75494 18.0244 4.11435 17.9922C4.47376 17.9601 4.81697 17.8292 5.1055 17.6142L9.12748 14.6262C9.23571 14.5466 9.36688 14.5036 9.50165 14.5036C9.63642 14.5036 9.7676 14.5466 9.87583 14.6262L13.8945 17.611C14.1827 17.826 14.5257 17.9571 14.8849 17.9895C15.0802 18.0071 15.2761 17.9952 15.466 17.9549M3.8889 1.28941C4.30418 1.10138 4.75892 1.00094 5.22418 1H13.7758C14.6304 1.00173 15.4495 1.33914 16.0537 1.93838C16.658 2.53762 16.9983 3.34986 17 4.19731V14.1614" stroke="black" stroke-width="1.3" stroke-linecap="round"/>
</g>
<path d="M1 1L18 18" stroke="black" stroke-width="1.3" stroke-linecap="round"/>
<defs>
<clipPath id="clip0_3588_3271">
<rect width="17" height="19" fill="white" transform="translate(1)"/>
</clipPath>
</defs>
</svg>
