<svg width="26" height="20" viewBox="0 0 26 20" fill="none" xmlns="http://www.w3.org/2000/svg">
<path d="M5.85604 18.0309C6.05785 18.3536 6.34708 18.6144 6.69124 18.7842C7.03536 18.9539 7.42077 19.0258 7.80413 18.9918C8.1875 18.9577 8.5536 18.8191 8.86136 18.5915L13.1515 15.4277C13.2669 15.3434 13.4068 15.2979 13.5506 15.2979C13.6943 15.2979 13.8343 15.3434 13.9497 15.4277L18.2363 18.5881C18.5437 18.8158 18.9096 18.9546 19.2927 18.9889C19.6759 19.0232 20.0611 18.9516 20.4052 18.7822C20.7494 18.6129 21.0387 18.3524 21.2407 18.0301C21.4427 17.7078 21.5494 17.3364 21.5488 16.9577L21.5488 5.5L21.5488 4.38539M19.986 1.55134C19.9587 1.53383 19.9312 1.51672 19.9035 1.5C19.3679 1.1769 18.7481 1.00128 18.1097 1H8.98796C8.07641 1.00183 7.20274 1.35909 6.55817 1.99358C5.91364 2.62807 5.5507 3.48809 5.54883 4.38539L5.54883 11V14" stroke="white" stroke-width="1.3" stroke-linecap="round"/>
<path d="M3.11936 18.1712L22.7906 1.27322" stroke="white" stroke-width="1.3" stroke-linecap="round"/>
</svg>
