<svg width="40" height="40" viewBox="0 0 40 40" fill="none" xmlns="http://www.w3.org/2000/svg">
<path fill-rule="evenodd" clip-rule="evenodd" d="M0.762954 3.82207C0 5.31945 0 7.27963 0 11.2V27.2C0 31.6804 0 33.9207 0.871948 35.6319C1.63893 37.1372 2.86278 38.3611 4.36808 39.1281C6.07937 40 8.31958 40 12.8 40H27.2C31.6804 40 33.9206 40 35.6319 39.1281C37.1372 38.3611 38.3611 37.1372 39.1281 35.6319C40 33.9207 40 31.6804 40 27.2V12.8C40 8.31958 40 6.07937 39.1281 4.36808C38.3611 2.86278 37.1372 1.63893 35.6319 0.871948C33.9206 0 31.6804 0 27.2 0H11.2C7.27963 0 5.31945 0 3.82207 0.762954C2.50493 1.43407 1.43407 2.50493 0.762954 3.82207ZM29.1813 10.924C28.9025 10.8859 28.6187 10.9238 28.3594 11.034L10.4153 18.6583C9.16443 19.1899 9.10042 21.0155 10.4163 21.5661C11.3901 21.9738 12.5833 22.3084 13.8698 22.5245C14.5749 22.6431 15.1647 22.5245 16.2959 21.8298C17.5782 21.0419 21.4567 18.2432 23.8723 16.4028C24.8451 15.6615 25.2207 16.1264 24.397 16.9322C24.1114 17.2113 23.7967 17.5163 23.4655 17.8373C21.3625 19.8754 18.5941 22.5583 18.3946 23.3515C18.126 24.4252 20.3118 25.9342 21.0254 26.4054C22.4525 27.3468 24.0391 28.249 25.1074 28.8346C26.3845 29.5346 27.9123 28.7287 28.1432 27.3235L30.5232 12.7558C30.5688 12.4757 30.5392 12.1883 30.4375 11.9236C30.3358 11.6589 30.1656 11.4265 29.9446 11.2507C29.7237 11.0749 29.4601 10.9621 29.1813 10.924Z" fill="white"/>
</svg>
