<svg width="17" height="18" viewBox="0 0 17 18" fill="none" xmlns="http://www.w3.org/2000/svg">
<path fill-rule="evenodd" clip-rule="evenodd" d="M9.19669 10.6176C9.32263 10.4918 9.49343 10.4211 9.67154 10.4211H11.91C12.0881 10.4211 12.2589 10.4918 12.3848 10.6176C12.5108 10.7434 12.5815 10.9141 12.5815 11.0921V13.3289C12.5815 13.5069 12.5108 13.6776 12.3848 13.8035C12.2589 13.9293 12.0881 14 11.91 14H9.67154C9.30085 14 9 13.6994 9 13.3289V11.0921C9 10.9141 9.07075 10.7434 9.19669 10.6176Z" fill="white"/>
<path fill-rule="evenodd" clip-rule="evenodd" d="M3.58153 0.5C3.34406 0.5 3.11632 0.594267 2.9484 0.762062C2.78048 0.929858 2.68615 1.15744 2.68615 1.39474V2.29037C1.82568 2.30289 1.48633 2.40579 1.14519 2.58832C0.784699 2.77902 0.489897 3.07361 0.299058 3.43384C0.103864 3.798 0 4.15947 0 5.1571V14.6324C0 15.6291 0.103864 15.9915 0.299058 16.3556C0.494251 16.7198 0.780773 17.0061 1.14519 17.2012C1.50961 17.3962 1.87135 17.5 2.8697 17.5H13.2472C14.2446 17.5 14.6073 17.3962 14.9717 17.2012C15.3361 17.0061 15.6226 16.7198 15.8178 16.3556C16.013 15.9915 16.1169 15.63 16.1169 14.6324V5.1571C16.1169 4.15947 16.013 3.798 15.8178 3.43384C15.627 3.07361 15.3322 2.77902 14.9717 2.58832C14.6306 2.40579 14.2912 2.30289 13.4307 2.28947V1.39474C13.4307 1.15744 13.3364 0.929858 13.1685 0.762062C13.0006 0.594267 12.7728 0.5 12.5354 0.5C12.2979 0.5 12.0701 0.594267 11.9022 0.762062C11.7343 0.929858 11.64 1.15744 11.64 1.39474V2.28947H4.47691V1.39474C4.47691 1.15744 4.38258 0.929858 4.21466 0.762062C4.04674 0.594267 3.819 0.5 3.58153 0.5ZM1.88889 7.58333C1.62809 7.58333 1.41667 7.79475 1.41667 8.05556V14.6324C1.41667 15.6111 1.88889 16.0833 2.8697 16.0833H13.2472C14.1667 16.0833 14.6389 15.6111 14.6389 14.6324L14.6422 8.05579C14.6424 7.7949 14.4309 7.58333 14.17 7.58333H1.88889ZM14.6389 5.6997C14.6389 5.9605 14.4275 6.17192 14.1667 6.17192H1.88889C1.62809 6.17192 1.41667 5.9605 1.41667 5.6997V4.75C1.41667 4.2284 1.83951 3.80556 2.36111 3.80556H13.6944C14.216 3.80556 14.6389 4.2284 14.6389 4.75V5.6997Z" fill="white"/>
</svg>
