<svg width="18" height="18" viewBox="0 0 18 18" fill="none" xmlns="http://www.w3.org/2000/svg">
<path d="M3.94781 17.6898H13.8173C15.9886 17.6898 17.7652 15.9133 17.7652 13.742V7.32676C17.7652 6.04373 16.9346 5.26988 15.9476 4.48032L11.0128 0.7299C9.63111 -0.257054 8.26443 -0.260259 6.8827 0.825389L1.94793 4.47712C0.960977 5.26668 0 6.04373 0 7.32676L0 13.742C0 15.9133 1.77652 17.6898 3.94781 17.6898ZM1.5 7.32676C1.5 6.73459 2.26999 6.14242 2.76347 5.74764L7.69824 1.99722C8.09302 1.70113 8.4878 1.60244 8.88258 1.60244C9.27736 1.60244 9.67214 1.70113 10.0669 1.99722L15.0017 5.74764C15.4952 6.14242 16 6.73459 16 7.32676V13.742C16 14.8276 14.903 16.1898 13.8173 16.1898H3.94781C2.86216 16.1898 1.5 14.8276 1.5 13.742L1.5 7.32676Z" fill="#0092A0"/>
</svg>
