<svg width="18" height="18" viewBox="0 0 18 18" fill="none" xmlns="http://www.w3.org/2000/svg">
<path d="M13.4102 2.77778C13.433 2.59354 13.4444 2.5014 13.4445 2.42532C13.4464 1.6974 12.8281 1.08579 12.012 1.00812C11.9267 1 11.8222 1 11.6132 1H6.38702C6.17803 1 6.07353 1 5.98821 1.00812C5.17212 1.08579 4.55388 1.6974 4.55567 2.42531C4.55585 2.5014 4.56723 2.59353 4.58998 2.77778" stroke="#0092A0" stroke-width="1.33333"/>
<path d="M15.1951 5.44444C15.3825 4.05268 14.5598 2.77777 13.4745 2.77777H4.5246C3.43931 2.77777 2.61672 4.05268 2.80403 5.44444" stroke="#0092A0" stroke-width="1.33333"/>
<path d="M1.64548 12.9887C1.9253 14.8999 2.06522 15.8555 2.78297 16.4278C3.50072 17 4.55935 17 6.67659 17H11.324C13.4413 17 14.4999 17 15.2177 16.4278C15.9354 15.8555 16.0753 14.8999 16.3551 12.9887C16.5514 11.4401 17.0695 6.8563 16.4705 6.23319C15.7122 5.44446 14.3622 5.44446 11.6624 5.44446H6.33821C3.63836 5.44446 2.28843 5.44446 1.53015 6.23319C0.771871 7.02191 1.29893 10.6246 1.65575 13.0617" stroke="#0092A0" stroke-width="1.33333" stroke-linecap="round"/>
<path d="M11.2948 10.0717C11.7912 10.3795 11.7912 11.176 11.2948 11.4837L8.29786 13.3416C7.81546 13.6407 7.22266 13.2515 7.22266 12.6357V8.91982C7.22266 8.30408 7.81546 7.91484 8.29786 8.21386L11.2948 10.0717Z" stroke="#0092A0" stroke-width="1.33333"/>
</svg>
