<svg width="18" height="18" viewBox="0 0 18 18" fill="none" xmlns="http://www.w3.org/2000/svg">
<path d="M13.8205 5.12748C13.7724 5.11948 13.7163 5.11948 13.6682 5.12748C12.5622 5.08748 11.6807 4.1836 11.6807 3.06374C11.6807 1.91988 12.6023 1 13.7483 1C14.8944 1 15.816 1.92788 15.816 3.06374C15.808 4.1836 14.9264 5.08748 13.8205 5.12748Z" stroke="white" stroke-width="1.25" stroke-linecap="round" stroke-linejoin="round"/>
<path d="M12.9957 10.9508C14.0937 11.1347 15.3038 10.9428 16.1533 10.3748C17.2834 9.62294 17.2834 8.3911 16.1533 7.63919C15.2958 7.07127 14.0696 6.87929 12.9717 7.07126" stroke="white" stroke-width="1.25" stroke-linecap="round" stroke-linejoin="round"/>
<path d="M4.18012 5.12754C4.22821 5.11954 4.28431 5.11954 4.33239 5.12754C5.43836 5.08754 6.31993 4.18366 6.31993 3.0638C6.31993 1.91995 5.39829 1.00006 4.25225 1.00006C3.10621 1.00006 2.18457 1.92794 2.18457 3.0638C2.19258 4.18366 3.07415 5.08754 4.18012 5.12754Z" stroke="white" stroke-width="1.25" stroke-linecap="round" stroke-linejoin="round"/>
<path d="M5.00512 10.9508C3.90717 11.1348 2.69702 10.9428 1.84751 10.3749C0.717497 9.623 0.717497 8.39116 1.84751 7.63926C2.70503 7.07133 3.93121 6.87935 5.02917 7.07132" stroke="white" stroke-width="1.25" stroke-linecap="round" stroke-linejoin="round"/>
<path d="M9.01188 11.1028C8.96379 11.0948 8.90769 11.0948 8.85961 11.1028C7.75364 11.0628 6.87207 10.1589 6.87207 9.03902C6.87207 7.89517 7.79371 6.97528 8.93975 6.97528C10.0858 6.97528 11.0074 7.90316 11.0074 9.03902C10.9994 10.1589 10.1178 11.0708 9.01188 11.1028Z" stroke="white" stroke-width="1.25" stroke-linecap="round" stroke-linejoin="round"/>
<path d="M6.67954 13.6224C5.54953 14.3743 5.54953 15.6062 6.67954 16.3581C7.96182 17.214 10.0616 17.214 11.3438 16.3581C12.4738 15.6062 12.4738 14.3743 11.3438 13.6224C10.0696 12.7745 7.96182 12.7745 6.67954 13.6224Z" stroke="white" stroke-width="1.25" stroke-linecap="round" stroke-linejoin="round"/>
</svg>
