<svg width="29" height="28" viewBox="0 0 29 28" fill="none" xmlns="http://www.w3.org/2000/svg">
<path fill-rule="evenodd" clip-rule="evenodd" d="M26.7479 0.439339C26.1621 -0.146447 25.2124 -0.146446 24.6266 0.43934L14.2867 10.7792L3.9473 0.439742C3.36151 -0.146044 2.41176 -0.146044 1.82598 0.439742C1.24019 1.02553 1.24019 1.97528 1.82598 2.56106L12.1654 12.9005L0.43934 24.6266C-0.146447 25.2124 -0.146447 26.1621 0.43934 26.7479C1.02513 27.3337 1.97487 27.3337 2.56066 26.7479L14.2867 15.0218L26.0132 26.7483C26.599 27.3341 27.5488 27.3341 28.1346 26.7483C28.7203 26.1625 28.7203 25.2128 28.1345 24.627L16.4081 12.9005L26.7479 2.56066C27.3337 1.97487 27.3337 1.02513 26.7479 0.439339Z" fill="black"/>
</svg>
