<svg width="18" height="18" viewBox="0 0 18 18" fill="none" xmlns="http://www.w3.org/2000/svg">
<path fill-rule="evenodd" clip-rule="evenodd" d="M4.32346 0C4.07202 0 3.83088 0.0998117 3.65308 0.277478C3.47529 0.455144 3.37541 0.696111 3.37541 0.947368V1.89568C2.46433 1.90895 2.10502 2.01789 1.74381 2.21116C1.36211 2.41308 1.04996 2.725 0.847899 3.10642C0.641224 3.492 0.53125 3.87474 0.53125 4.93105V14.9637C0.53125 16.0191 0.641224 16.4027 0.847899 16.7883C1.05457 17.1739 1.35795 17.4771 1.74381 17.6836C2.12967 17.8901 2.51268 18 3.56976 18H14.5577C15.6138 18 15.9978 17.8901 16.3836 17.6836C16.7695 17.4771 17.0729 17.1739 17.2795 16.7883C17.4862 16.4027 17.5962 16.02 17.5962 14.9637V4.93105C17.5962 3.87474 17.4862 3.492 17.2795 3.10642C17.0775 2.725 16.7653 2.41308 16.3836 2.21116C16.0224 2.01789 15.6631 1.90895 14.752 1.89474V0.947368C14.752 0.696111 14.6521 0.455144 14.4744 0.277478C14.2966 0.0998117 14.0554 0 13.804 0C13.5525 0 13.3114 0.0998117 13.1336 0.277478C12.9558 0.455144 12.8559 0.696111 12.8559 0.947368V1.89474H5.27151V0.947368C5.27151 0.696111 5.17163 0.455144 4.99383 0.277478C4.81604 0.0998117 4.5749 0 4.32346 0ZM2.42735 6.63158V14.9637C2.42735 15.3682 2.44537 15.6212 2.47381 15.768C2.48518 15.8248 2.48993 15.8381 2.52026 15.8949C2.5454 15.9462 2.58671 15.9878 2.63782 16.0134C2.6947 16.0427 2.70703 16.0475 2.76486 16.0588C2.91181 16.0873 3.16494 16.1053 3.56976 16.1053H14.5577C14.9625 16.1053 15.2156 16.0873 15.3626 16.0588C15.4076 16.0522 15.4509 16.0364 15.4896 16.0124C15.5409 15.9873 15.5826 15.946 15.6081 15.8949C15.6318 15.8562 15.6472 15.813 15.6536 15.768C15.6821 15.6212 15.7001 15.3682 15.7001 14.9637L15.7039 6.63158H2.42735ZM10.7228 10.4211C10.5342 10.4211 10.3534 10.4959 10.22 10.6292C10.0867 10.7624 10.0118 10.9431 10.0118 11.1316V13.5C10.0118 13.8922 10.3303 14.2105 10.7228 14.2105H13.0929C13.2815 14.2105 13.4624 14.1357 13.5957 14.0024C13.7291 13.8692 13.804 13.6884 13.804 13.5V11.1316C13.804 10.9431 13.7291 10.7624 13.5957 10.6292C13.4624 10.4959 13.2815 10.4211 13.0929 10.4211H10.7228Z" fill="#8CBAF6"/>
</svg>
