<svg width="17" height="17" viewBox="0 0 17 17" fill="none" xmlns="http://www.w3.org/2000/svg">
<path fill-rule="evenodd" clip-rule="evenodd" d="M16.2501 0.750142C15.7746 0.274562 15.0035 0.274562 14.5279 0.750143L8.50002 6.77804L2.4721 0.750123C1.99652 0.274543 1.22546 0.274543 0.749877 0.750123C0.274297 1.2257 0.274297 1.99677 0.749877 2.47235L6.77779 8.50027L0.750096 14.528C0.274516 15.0035 0.274516 15.7746 0.750096 16.2502C1.22568 16.7258 1.99674 16.7258 2.47232 16.2502L8.50002 10.2225L14.5277 16.2502C15.0033 16.7257 15.7743 16.7257 16.2499 16.2502C16.7255 15.7746 16.7255 15.0035 16.2499 14.5279L10.2222 8.50027L16.2501 2.47237C16.7257 1.99679 16.7257 1.22572 16.2501 0.750142Z" fill="#D48888"/>
</svg>
