<svg width="35" height="35" viewBox="0 0 35 35" fill="none" xmlns="http://www.w3.org/2000/svg">
<path d="M35 17.5C35 27.165 27.165 35 17.5 35C7.83502 35 0 27.165 0 17.5C0 7.83502 7.83502 0 17.5 0C27.165 0 35 7.83502 35 17.5Z" fill="white"/>
<path d="M6.84 23V14.36H11.88V15.428H7.908V18.146H11.16V19.214H7.908V23H6.84ZM12.24 23L15.132 14.36H16.62L19.512 23H18.402L15.696 14.984H16.032L13.35 23H12.24ZM13.632 20.978V19.976H18.12V20.978H13.632ZM27.1317 23.174L24.7737 20.828L25.4757 20.126L27.8217 22.472L27.1317 23.174ZM23.9037 23.18C23.0437 23.18 22.3137 22.99 21.7137 22.61C21.1137 22.23 20.6557 21.702 20.3397 21.026C20.0277 20.35 19.8717 19.568 19.8717 18.68C19.8717 17.792 20.0277 17.01 20.3397 16.334C20.6557 15.658 21.1137 15.13 21.7137 14.75C22.3137 14.37 23.0437 14.18 23.9037 14.18C24.7677 14.18 25.4997 14.37 26.0997 14.75C26.6997 15.13 27.1557 15.658 27.4677 16.334C27.7797 17.01 27.9357 17.792 27.9357 18.68C27.9357 19.568 27.7797 20.35 27.4677 21.026C27.1557 21.702 26.6997 22.23 26.0997 22.61C25.4997 22.99 24.7677 23.18 23.9037 23.18ZM23.9037 22.16C24.5477 22.164 25.0837 22.02 25.5117 21.728C25.9437 21.432 26.2657 21.022 26.4777 20.498C26.6937 19.974 26.8017 19.368 26.8017 18.68C26.8017 17.988 26.6937 17.382 26.4777 16.862C26.2657 16.342 25.9437 15.936 25.5117 15.644C25.0837 15.352 24.5477 15.204 23.9037 15.2C23.2597 15.196 22.7237 15.34 22.2957 15.632C21.8717 15.924 21.5517 16.332 21.3357 16.856C21.1197 17.38 21.0097 17.988 21.0057 18.68C21.0017 19.368 21.1077 19.972 21.3237 20.492C21.5397 21.012 21.8617 21.42 22.2897 21.716C22.7217 22.008 23.2597 22.156 23.9037 22.16Z" fill="#03AC25"/>
</svg>
