<svg width="35" height="35" viewBox="0 0 35 35" fill="none" xmlns="http://www.w3.org/2000/svg">
<path d="M35 17.5C35 27.165 27.165 35 17.5 35C7.83502 35 0 27.165 0 17.5C0 7.83502 7.83502 0 17.5 0C27.165 0 35 7.83502 35 17.5Z" fill="white"/>
<path d="M21.6 17.9999L21.6143 20.5999" stroke="#03AB2C" stroke-width="1.3" stroke-linecap="round"/>
<path d="M21.6 14.9999L21.6035 15.6499" stroke="#03AB2C" stroke-width="1.3" stroke-linecap="round"/>
<path d="M17.136 25C13.6014 25.0193 13.228 22.8856 9.31788 22.5069C8.60446 22.4378 8.01872 21.8697 8.01479 21.153L7.97205 13.35C7.96812 12.632 8.54932 12.0429 9.26682 12.069C15.771 12.3052 15.8558 14.6068 17.079 14.6001" stroke="#03AB2C" stroke-width="1.3"/>
<path d="M17.1352 24.9999L17.7852 24.9963" stroke="#03AB2C" stroke-width="1.3"/>
<path d="M17.1735 24.9996C20.7079 24.9802 21.0275 22.843 24.9268 22.4213C25.6394 22.3443 26.2189 21.7699 26.215 21.0532L26.1722 13.2501C26.1683 12.5322 25.5807 11.9495 24.8635 11.9834C18.3623 12.2908 18.3027 14.5932 17.0795 14.5999" stroke="#03AB2C" stroke-width="1.3"/>
<path d="M17.0788 14.6002L17.1357 25" stroke="#03AB2C" stroke-width="1.3"/>
</svg>
