<svg width="30" height="30" viewBox="0 0 30 30" fill="none" xmlns="http://www.w3.org/2000/svg">
<path d="M18.8574 15.4286L18.8696 17.6571" stroke="white" stroke-width="1.3" stroke-linecap="round"/>
<path d="M18.8574 12.8571L18.8605 13.4143" stroke="white" stroke-width="1.3" stroke-linecap="round"/>
<path d="M15.0312 21.4285C12.0585 21.4448 11.6945 19.6843 8.5159 19.3114C7.80402 19.2279 7.21594 18.6625 7.21201 17.9458L7.17742 11.6285C7.17348 10.9105 7.75581 10.3205 8.47307 10.3523C13.863 10.5916 13.9457 12.52 14.9824 12.5143" stroke="white" stroke-width="1.3"/>
<path d="M15.0305 21.4285L15.5876 21.4254" stroke="white" stroke-width="1.3"/>
<path d="M15.0633 21.4283C18.0357 21.412 18.3554 19.6482 21.5233 19.2404C22.2341 19.1488 22.816 18.5771 22.8121 17.8604L22.7775 11.5431C22.7736 10.8251 22.1848 10.2415 21.468 10.2812C16.081 10.5794 16.0194 12.5087 14.9827 12.5143" stroke="white" stroke-width="1.3"/>
<path d="M14.9822 12.5143L15.031 21.4285" stroke="white" stroke-width="1.3"/>
</svg>
