<svg width="35" height="35" viewBox="0 0 35 35" fill="none" xmlns="http://www.w3.org/2000/svg">
<path d="M35 17.5C35 27.165 27.165 35 17.5 35C7.83502 35 0 27.165 0 17.5C0 7.83502 7.83502 0 17.5 0C27.165 0 35 7.83502 35 17.5Z" fill="#0294A1"/>
<path d="M22.0004 18.0001L22.0146 20.6001" stroke="white" stroke-width="1.3" stroke-linecap="round"/>
<path d="M22.0003 14.9999L22.0039 15.6499" stroke="white" stroke-width="1.3" stroke-linecap="round"/>
<path d="M17.5364 25C14.0018 25.0193 13.6284 22.8856 9.71827 22.5069C9.00485 22.4378 8.41911 21.8697 8.41518 21.153L8.37244 13.35C8.36851 12.632 8.94971 12.0429 9.66721 12.069C16.1714 12.3052 16.2562 14.6068 17.4794 14.6001" stroke="white" stroke-width="1.3"/>
<path d="M17.5356 24.9997L18.1855 24.9961" stroke="white" stroke-width="1.3"/>
<path d="M17.5739 24.9998C21.1083 24.9805 21.4279 22.8433 25.3272 22.4216C26.0398 22.3445 26.6193 21.7701 26.6154 21.0534L26.5726 13.2504C26.5687 12.5324 25.9811 11.9497 25.2639 11.9836C18.7627 12.2911 18.7031 14.5935 17.4799 14.6002" stroke="white" stroke-width="1.3"/>
<path d="M17.4792 14.6002L17.5361 25" stroke="white" stroke-width="1.3"/>
</svg>
