<svg width="35" height="35" viewBox="0 0 35 35" fill="none" xmlns="http://www.w3.org/2000/svg">
<path d="M35 17.5C35 27.165 27.165 35 17.5 35C7.83502 35 0 27.165 0 17.5C0 7.83502 7.83502 0 17.5 0C27.165 0 35 7.83502 35 17.5Z" fill="#0294A1"/>
<path d="M26.35 16.6715C26.35 20.4068 22.5271 23.6613 17.5 23.6613C17.2652 23.6613 17.0326 23.6541 16.8025 23.6399C16.4919 23.6207 16.1728 23.6944 15.8966 23.8698L13.6807 25.276C13.559 25.3532 13.4 25.2658 13.4 25.1216V23.8203C13.4 23.2368 13.0603 22.7339 12.5791 22.4785C10.1614 21.1955 8.65 19.0414 8.65 16.6715C8.65 12.9682 12.4318 10.0138 17.5 10.0138C22.5682 10.0138 26.35 12.9682 26.35 16.6715Z" stroke="white" stroke-width="1.3"/>
<circle cx="15.7728" cy="17.1366" r="0.863636" fill="white"/>
<circle cx="19.2269" cy="17.1366" r="0.863636" fill="white"/>
</svg>
