<svg width="35" height="35" viewBox="0 0 35 35" fill="none" xmlns="http://www.w3.org/2000/svg">
<path d="M35 17.5C35 27.165 27.165 35 17.5 35C7.83502 35 0 27.165 0 17.5C0 7.83502 7.83502 0 17.5 0C27.165 0 35 7.83502 35 17.5Z" fill="white"/>
<path d="M26.35 17.6715C26.35 21.4068 22.5271 24.6613 17.5 24.6613C17.2652 24.6613 17.0326 24.6541 16.8025 24.6399C16.4919 24.6207 16.1728 24.6944 15.8966 24.8698L13.6807 26.276C13.559 26.3532 13.4 26.2658 13.4 26.1216V24.8203C13.4 24.2368 13.0603 23.7339 12.5791 23.4785C10.1614 22.1955 8.65 20.0414 8.65 17.6715C8.65 13.9682 12.4318 11.0138 17.5 11.0138C22.5682 11.0138 26.35 13.9682 26.35 17.6715Z" stroke="#03AA30" stroke-width="1.3"/>
<circle cx="15.7728" cy="18.1366" r="0.863636" fill="#03AA30"/>
<circle cx="19.2269" cy="18.1366" r="0.863636" fill="#03AA30"/>
</svg>
