<svg width="100" height="101" viewBox="0 0 100 101" fill="none" xmlns="http://www.w3.org/2000/svg">
<path d="M75.7992 12.8885C75.9324 11.7601 75.999 11.1958 76 10.7298C76.0108 6.27143 72.3937 2.52544 67.6195 2.04974C67.1204 2 66.5092 2 65.2868 2H34.7134C33.4908 2 32.8795 2 32.3804 2.04974C27.6063 2.52544 23.9896 6.27143 24 10.7297C24.0011 11.1958 24.0677 11.76 24.2007 12.8885" stroke="black" stroke-width="4"/>
<path d="M86.8412 28.7365C87.9554 20.9872 83.0635 13.8885 76.6102 13.8885H23.3899C16.9363 13.8885 12.0449 20.9872 13.1587 28.7365" stroke="black" stroke-width="4"/>
<path d="M97.2611 52.2645L97.3242 51.8333C98.5017 42.5474 98.4153 37.2023 94.821 33.4659C90.2711 28.7365 82.1716 28.7365 65.9725 28.7365H34.0275C17.8284 28.7365 9.72882 28.7365 5.17914 33.4659C1.58473 37.2023 1.49816 42.5473 2.67598 51.8333C4.35492 63.2935 8.38953 91.164 12.696 94.5957C17.0026 98.027 23.3543 98.027 36.0578 98.027H63.9421C76.6458 98.027 82.9977 98.027 87.3042 94.5957C91.5577 91.2063 95.5457 63.9769 97.2611 52.2645Z" stroke="black" stroke-width="4" stroke-linecap="round"/>
<path d="M36 62.3919L45.764 76.9809C46.6872 78.4733 48.3436 79.2195 50 79.2195M64 62.3919L54.236 76.9809C53.3128 78.4733 51.6564 79.2195 50 79.2195M50 79.2195V47.5439" stroke="black" stroke-width="4" stroke-linecap="round" stroke-linejoin="round"/>
</svg>
