<svg width="30" height="30" viewBox="0 0 30 30" fill="none" xmlns="http://www.w3.org/2000/svg">
<circle cx="15" cy="15" r="15" fill="url(#paint0_linear_2158_35)"/>
<path fill-rule="evenodd" clip-rule="evenodd" d="M10.2667 14.264C9.01326 13.011 9.16976 10.8749 10.7348 9.84186C11.8733 9.0903 13.4026 9.31606 14.3674 10.2805L14.8147 10.7277C15.0942 11.0071 15.5465 11.0071 15.8252 10.7277C16.1047 10.4491 16.1047 9.99689 15.8252 9.71755L15.4472 9.33963C13.7871 7.68006 11.06 7.51145 9.35057 9.12031C7.58182 10.7856 7.55038 13.5696 9.25624 15.2742L9.76148 15.7793C10.0402 16.0587 10.4933 16.0587 10.772 15.7793C11.0514 15.5007 11.0514 15.0485 10.772 14.7691L10.2667 14.264ZM20.6512 14.542L20.2868 14.1776C20.0073 13.8983 19.555 13.8983 19.2762 14.1776C18.9968 14.4562 18.9968 14.9085 19.2762 15.1878L19.7236 15.635C20.6884 16.5995 20.9135 18.1283 20.1624 19.2663C19.129 20.8309 16.9915 20.9867 15.7388 19.7343L15.2335 19.2292C14.9541 18.9499 14.5017 18.9499 14.223 19.2292C13.9436 19.5078 13.9436 19.96 14.223 20.2394L14.7283 20.7445C16.4291 22.4448 19.2041 22.4183 20.8706 20.6637C22.495 18.9542 22.3192 16.2094 20.6512 14.542ZM17.7598 18.7241L11.2772 12.2437C10.9985 11.9644 10.9985 11.5122 11.2772 11.2328C11.5567 10.9542 12.009 10.9542 12.2878 11.2328L18.771 17.7132C19.0497 17.9926 19.0497 18.4448 18.771 18.7241C18.4916 19.0027 18.0392 19.0027 17.7598 18.7241Z" fill="white"/>
<defs>
<linearGradient id="paint0_linear_2158_35" x1="-12" y1="30" x2="41.5" y2="3.5" gradientUnits="userSpaceOnUse">
<stop stop-color="#05AD25"/>
<stop offset="0.501" stop-color="#0294A1"/>
<stop offset="1" stop-color="#181381"/>
</linearGradient>
</defs>
</svg>
