<svg width="17" height="17" viewBox="0 0 17 17" fill="none" xmlns="http://www.w3.org/2000/svg">
<path d="M15.4994 7.50065C15.2342 7.50065 14.9798 7.3953 14.7923 7.20777C14.6048 7.02024 14.4994 6.7659 14.4994 6.5007C14.4994 5.94973 14.0515 5.50076 13.4995 5.50076H3.91401L5.20694 6.79369C5.39444 6.98118 5.49977 7.23549 5.49977 7.50065C5.49977 7.76581 5.39444 8.02011 5.20694 8.20761C5.01944 8.39511 4.76514 8.50044 4.49998 8.50044C4.23482 8.50044 3.98052 8.39511 3.79302 8.20761L0.793185 5.20777C0.700244 5.11499 0.626511 5.00479 0.576203 4.88349C0.525895 4.76218 0.5 4.63214 0.5 4.50081C0.5 4.36949 0.525895 4.23945 0.576203 4.11814C0.626511 3.99683 0.700244 3.88664 0.793185 3.79385L3.79302 0.794019C3.88567 0.700839 3.99582 0.626893 4.11715 0.576435C4.23847 0.525976 4.36858 0.5 4.49998 0.5C4.63138 0.5 4.76149 0.525976 4.88281 0.576435C5.00414 0.626893 5.11429 0.700839 5.20694 0.794019C5.29988 0.886801 5.37361 0.996999 5.42392 1.11831C5.47423 1.23962 5.50013 1.36965 5.50013 1.50098C5.50013 1.63231 5.47423 1.76234 5.42392 1.88365C5.37361 2.00496 5.29988 2.11516 5.20694 2.20794L3.91401 3.50087H13.4995C15.1534 3.50087 16.4993 4.84679 16.4993 6.5007C16.4993 6.7659 16.394 7.02024 16.2064 7.20777C16.0189 7.3953 15.7646 7.50065 15.4994 7.50065ZM1.50015 9.50054C1.76535 9.50054 2.01969 9.60589 2.20721 9.79342C2.39474 9.98094 2.50009 10.2353 2.50009 10.5005C2.50009 11.0515 2.94807 11.5004 3.50004 11.5004H13.0855L11.7926 10.2075C11.6997 10.1147 11.6261 10.0044 11.5758 9.88314C11.5256 9.76184 11.4997 9.63183 11.4997 9.50054C11.4997 9.36924 11.5256 9.23923 11.5758 9.11793C11.6261 8.99663 11.6997 8.88642 11.7926 8.79358C11.8854 8.70074 11.9956 8.62709 12.1169 8.57685C12.2382 8.5266 12.3682 8.50074 12.4995 8.50074C12.6308 8.50074 12.7608 8.5266 12.8821 8.57685C13.0034 8.62709 13.1137 8.70074 13.2065 8.79358L16.2063 11.7934C16.2993 11.8862 16.373 11.9964 16.4233 12.1177C16.4736 12.239 16.4995 12.369 16.4995 12.5004C16.4995 12.6317 16.4736 12.7617 16.4233 12.883C16.373 13.0044 16.2993 13.1146 16.2063 13.2073L13.2065 16.2072C13.1137 16.3 13.0034 16.3737 12.8821 16.4239C12.7608 16.4741 12.6308 16.5 12.4995 16.5C12.3682 16.5 12.2382 16.4741 12.1169 16.4239C11.9956 16.3737 11.8854 16.3 11.7926 16.2072C11.6997 16.1143 11.6261 16.0041 11.5758 15.8828C11.5256 15.7615 11.4997 15.6315 11.4997 15.5002C11.4997 15.3689 11.5256 15.2389 11.5758 15.1176C11.6261 14.9963 11.6997 14.8861 11.7926 14.7932L13.0855 13.5003H3.50004C1.84613 13.5003 0.500201 12.1544 0.500201 10.5005C0.500201 10.2353 0.605552 9.98094 0.793078 9.79342C0.980604 9.60589 1.23494 9.50054 1.50015 9.50054Z" fill="#353535"/>
</svg>
