<svg width="35" height="35" viewBox="0 0 35 35" fill="none" xmlns="http://www.w3.org/2000/svg">
<circle cx="17.5" cy="17.5" r="17.5" fill="url(#paint0_linear_2132_129)"/>
<path fill-rule="evenodd" clip-rule="evenodd" d="M10 14.3654V21.8534C10 23.712 11.5067 25.2188 13.3654 25.2188H20.8534C22.712 25.2188 24.2188 23.712 24.2188 21.8534V19.5034C24.2188 18.6108 23.8642 17.7548 23.2331 17.1237L18.0951 11.9857C17.4639 11.3546 16.6079 11 15.7154 11H13.3654C11.5067 11 10 12.5067 10 14.3654ZM17.1094 15.3513V17.0995C17.1094 17.6571 17.5614 18.1092 18.119 18.1092H19.8673C20.7667 18.1092 21.2172 17.0217 20.5812 16.3856L18.8329 14.6374C18.1969 14.0013 17.1094 14.4518 17.1094 15.3513Z" fill="white"/>
<path d="M23.2331 17.1237L22.9951 17.3616L22.9951 17.3616L23.2331 17.1237ZM18.0951 11.9857L18.333 11.7477L18.333 11.7477L18.0951 11.9857ZM20.5812 16.3856L20.8191 16.1477L20.8191 16.1477L20.5812 16.3856ZM18.8329 14.6374L19.0709 14.3994L19.0709 14.3994L18.8329 14.6374ZM10.3365 21.8534V14.3654H9.66346V21.8534H10.3365ZM13.3654 24.8822C11.6926 24.8822 10.3365 23.5262 10.3365 21.8534H9.66346C9.66346 23.8979 11.3209 25.5553 13.3654 25.5553V24.8822ZM20.8534 24.8822H13.3654V25.5553H20.8534V24.8822ZM23.8822 21.8534C23.8822 23.5262 22.5262 24.8822 20.8534 24.8822V25.5553C22.8979 25.5553 24.5553 23.8979 24.5553 21.8534H23.8822ZM23.8822 19.5034V21.8534H24.5553V19.5034H23.8822ZM22.9951 17.3616C23.5631 17.9297 23.8822 18.7001 23.8822 19.5034H24.5553C24.5553 18.5216 24.1653 17.58 23.471 16.8857L22.9951 17.3616ZM17.8571 12.2237L22.9951 17.3616L23.471 16.8857L18.333 11.7477L17.8571 12.2237ZM15.7154 11.3365C16.5187 11.3365 17.2891 11.6556 17.8571 12.2237L18.333 11.7477C17.6388 11.0535 16.6972 10.6635 15.7154 10.6635V11.3365ZM13.3654 11.3365H15.7154V10.6635H13.3654V11.3365ZM10.3365 14.3654C10.3365 12.6926 11.6926 11.3365 13.3654 11.3365V10.6635C11.3209 10.6635 9.66346 12.3209 9.66346 14.3654H10.3365ZM17.4459 17.0995V15.3513H16.7728V17.0995H17.4459ZM18.119 17.7726C17.7473 17.7726 17.4459 17.4713 17.4459 17.0995H16.7728C16.7728 17.843 17.3755 18.4457 18.119 18.4457V17.7726ZM19.8673 17.7726H18.119V18.4457H19.8673V17.7726ZM20.3432 16.6236C20.7672 17.0476 20.4669 17.7726 19.8673 17.7726V18.4457C21.0666 18.4457 21.6672 16.9957 20.8191 16.1477L20.3432 16.6236ZM18.5949 14.8753L20.3432 16.6236L20.8191 16.1477L19.0709 14.3994L18.5949 14.8753ZM17.4459 15.3513C17.4459 14.7516 18.1709 14.4513 18.5949 14.8753L19.0709 14.3994C18.2228 13.5514 16.7728 14.152 16.7728 15.3513H17.4459Z" fill="white"/>
<defs>
<linearGradient id="paint0_linear_2132_129" x1="35" y1="17.5" x2="-4.38104e-08" y2="17.5" gradientUnits="userSpaceOnUse">
<stop stop-color="#191281"/>
<stop offset="0.535" stop-color="#0092A0"/>
<stop offset="1" stop-color="#03AD1E"/>
</linearGradient>
</defs>
</svg>
