<svg width="14" height="38" viewBox="0 0 14 38" fill="none" xmlns="http://www.w3.org/2000/svg">
<path fill-rule="evenodd" clip-rule="evenodd" d="M10.11 3.23195C10.11 5.01691 8.6736 6.46391 6.90169 6.46391C5.12978 6.46391 3.69336 5.01691 3.69336 3.23195C3.69336 1.447 5.12978 0 6.90169 0C8.6736 0 10.11 1.447 10.11 3.23195ZM4.66666 38C3.70844 38 3.11111 37.399 3.11111 36.433V11.3608H2.33333V20.7629C2.33333 22.3299 0 22.3299 0 20.7629V11.0372C0 8.79015 1.69555 7.44331 3.88889 7.44331H10.1111C12.5176 7.44331 14 9.02207 14 11.0952V20.6171C14.0047 22.4936 11.6667 22.4936 11.6667 20.6171V11.3608H10.8889V36.433C10.8889 37.399 10.2923 38 9.33333 38C8.37433 38 7.77777 37.3974 7.77777 36.433V21.5464H6.22222V36.433C6.22222 37.399 5.62722 38 4.66666 38Z" fill="black"/>
<path fill-rule="evenodd" clip-rule="evenodd" d="M10.11 3.23195C10.11 5.01691 8.6736 6.46391 6.90169 6.46391C5.12978 6.46391 3.69336 5.01691 3.69336 3.23195C3.69336 1.447 5.12978 0 6.90169 0C8.6736 0 10.11 1.447 10.11 3.23195ZM4.66666 38C3.70844 38 3.11111 37.399 3.11111 36.433V11.3608H2.33333V20.7629C2.33333 22.3299 0 22.3299 0 20.7629V11.0372C0 8.79015 1.69555 7.44331 3.88889 7.44331H10.1111C12.5176 7.44331 14 9.02207 14 11.0952V20.6171C14.0047 22.4936 11.6667 22.4936 11.6667 20.6171V11.3608H10.8889V36.433C10.8889 37.399 10.2923 38 9.33333 38C8.37433 38 7.77777 37.3974 7.77777 36.433V21.5464H6.22222V36.433C6.22222 37.399 5.62722 38 4.66666 38Z" fill="url(#paint0_linear_998_2088)"/>
<defs>
<linearGradient id="paint0_linear_998_2088" x1="-2.5" y1="32" x2="15" y2="6" gradientUnits="userSpaceOnUse">
<stop stop-color="#05AD25"/>
<stop offset="0.5" stop-color="#0294A1"/>
<stop offset="1" stop-color="#181381"/>
</linearGradient>
</defs>
</svg>
