<svg width="17" height="38" viewBox="0 0 17 38" fill="none" xmlns="http://www.w3.org/2000/svg">
<path fill-rule="evenodd" clip-rule="evenodd" d="M11.6488 3.16736C11.6488 4.91788 10.2385 6.3365 8.49872 6.3365C6.75897 6.3365 5.34933 4.91788 5.34933 3.16729C5.34933 1.41795 6.75897 0 8.49872 0C10.2385 0 11.6488 1.41795 11.6488 3.16736ZM14.6396 10.8554L16.9588 19.1321C17.1288 19.8293 16.7061 20.5411 16.013 20.7116C15.3199 20.884 14.6255 20.4761 14.4542 19.7788L12.1425 11.5276H11.4609L15.4836 25.8804H11.9725V36.527C11.9725 37.3405 11.3175 38 10.5083 38C9.69909 38 9.04278 37.3405 9.04278 36.527V25.8804H8.23544V36.527C8.23544 37.3405 7.58039 38 6.77053 38C5.96194 38 5.30629 37.3405 5.30629 36.527V25.8804H1.51395L5.53606 11.5276H4.85378L2.54213 19.7788C2.37139 20.4761 1.67635 20.884 0.982635 20.7116C0.290247 20.5411 -0.132461 19.8292 0.0376104 19.1321L2.35686 10.8554C2.99531 8.68722 4.42723 7.25005 6.03683 7.25005H8.49818H10.9609C12.5705 7.25005 14.0011 8.68722 14.6396 10.8554Z" fill="url(#paint0_linear_998_2091)"/>
<defs>
<linearGradient id="paint0_linear_998_2091" x1="-3" y1="27" x2="17" y2="1.5" gradientUnits="userSpaceOnUse">
<stop stop-color="#05AD25"/>
<stop offset="0.5" stop-color="#0294A1"/>
<stop offset="1" stop-color="#181381"/>
</linearGradient>
</defs>
</svg>
